<svg  viewBox="0 0 2398 620" fill="none" xmlns="http://www.w3.org/2000/svg">
<rect  />
<path d="M685.674 387.316C671.907 387.316 659.426 384.357 648.232 378.438C637.167 372.391 628.417 364.092 621.984 353.541C615.679 342.862 612.527 330.831 612.527 317.45C612.527 304.069 615.679 292.103 621.984 281.552C628.417 270.873 637.167 262.574 648.232 256.655C659.426 250.608 671.971 247.584 685.867 247.584C697.576 247.584 708.126 249.643 717.519 253.76C727.04 257.877 735.018 263.796 741.451 271.516L721.379 290.044C712.244 279.493 700.921 274.218 687.411 274.218C679.048 274.218 671.585 276.084 665.023 279.815C658.461 283.418 653.314 288.5 649.583 295.062C645.98 301.624 644.179 309.087 644.179 317.45C644.179 325.813 645.98 333.276 649.583 339.838C653.314 346.4 658.461 351.547 665.023 355.278C671.585 358.881 679.048 360.682 687.411 360.682C700.921 360.682 712.244 355.342 721.379 344.663L741.451 363.191C735.018 371.04 727.04 377.023 717.519 381.14C707.998 385.257 697.383 387.316 685.674 387.316ZM848.643 385L822.588 347.365L821.044 347.365L793.831 347.365L793.831 385L762.565 385L762.565 249.9L821.044 249.9C833.01 249.9 843.368 251.894 852.117 255.883C860.995 259.872 867.814 265.533 872.575 272.867C877.336 280.201 879.716 288.886 879.716 298.922C879.716 308.958 877.271 317.643 872.382 324.977C867.621 332.182 860.802 337.715 851.924 341.575L882.225 385L848.643 385ZM848.064 298.922C848.064 291.331 845.619 285.541 840.73 281.552C835.841 277.435 828.7 275.376 819.307 275.376L793.831 275.376L793.831 322.468L819.307 322.468C828.7 322.468 835.841 320.409 840.73 316.292C845.619 312.175 848.064 306.385 848.064 298.922ZM967.451 337.136L967.451 385L936.185 385L936.185 336.75L883.882 249.9L917.078 249.9L953.169 309.923L989.26 249.9L1019.95 249.9L967.451 337.136ZM1090.19 249.9C1102.15 249.9 1112.51 251.894 1121.26 255.883C1130.14 259.872 1136.96 265.533 1141.72 272.867C1146.48 280.201 1148.86 288.886 1148.86 298.922C1148.86 308.829 1146.48 317.514 1141.72 324.977C1136.96 332.311 1130.14 337.972 1121.26 341.961C1112.51 345.821 1102.15 347.751 1090.19 347.751L1062.98 347.751L1062.98 385L1031.71 385L1031.71 249.9L1090.19 249.9ZM1088.45 322.275C1097.84 322.275 1104.99 320.281 1109.87 316.292C1114.76 312.175 1117.21 306.385 1117.21 298.922C1117.21 291.331 1114.76 285.541 1109.87 281.552C1104.99 277.435 1097.84 275.376 1088.45 275.376L1062.98 275.376L1062.98 322.275L1088.45 322.275ZM1195.4 275.376L1152.17 275.376L1152.17 249.9L1269.9 249.9L1269.9 275.376L1226.66 275.376L1226.66 385L1195.4 385L1195.4 275.376ZM1350.26 387.316C1336.24 387.316 1323.56 384.292 1312.24 378.245C1301.05 372.198 1292.23 363.899 1285.8 353.348C1279.49 342.669 1276.34 330.703 1276.34 317.45C1276.34 304.197 1279.49 292.296 1285.8 281.745C1292.23 271.066 1301.05 262.702 1312.24 256.655C1323.56 250.608 1336.24 247.584 1350.26 247.584C1364.29 247.584 1376.89 250.608 1388.09 256.655C1399.28 262.702 1408.1 271.066 1414.53 281.745C1420.96 292.296 1424.18 304.197 1424.18 317.45C1424.18 330.703 1420.96 342.669 1414.53 353.348C1408.1 363.899 1399.28 372.198 1388.09 378.245C1376.89 384.292 1364.29 387.316 1350.26 387.316ZM1350.26 360.682C1358.24 360.682 1365.44 358.881 1371.88 355.278C1378.31 351.547 1383.33 346.4 1386.93 339.838C1390.66 333.276 1392.53 325.813 1392.53 317.45C1392.53 309.087 1390.66 301.624 1386.93 295.062C1383.33 288.5 1378.31 283.418 1371.88 279.815C1365.44 276.084 1358.24 274.218 1350.26 274.218C1342.28 274.218 1335.08 276.084 1328.64 279.815C1322.21 283.418 1317.13 288.5 1313.4 295.062C1309.79 301.624 1307.99 309.087 1307.99 317.45C1307.99 325.813 1309.79 333.276 1313.4 339.838C1317.13 346.4 1322.21 351.547 1328.64 355.278C1335.08 358.881 1342.28 360.682 1350.26 360.682ZM1512.33 387.316C1498.56 387.316 1486.08 384.357 1474.89 378.438C1463.82 372.391 1455.08 364.092 1448.64 353.541C1442.34 342.862 1439.19 330.831 1439.19 317.45C1439.19 304.069 1442.34 292.103 1448.64 281.552C1455.08 270.873 1463.82 262.574 1474.89 256.655C1486.08 250.608 1498.63 247.584 1512.53 247.584C1524.23 247.584 1534.78 249.643 1544.18 253.76C1553.7 257.877 1561.68 263.796 1568.11 271.516L1548.04 290.044C1538.9 279.493 1527.58 274.218 1514.07 274.218C1505.71 274.218 1498.24 276.084 1491.68 279.815C1485.12 283.418 1479.97 288.5 1476.24 295.062C1472.64 301.624 1470.84 309.087 1470.84 317.45C1470.84 325.813 1472.64 333.276 1476.24 339.838C1479.97 346.4 1485.12 351.547 1491.68 355.278C1498.24 358.881 1505.71 360.682 1514.07 360.682C1527.58 360.682 1538.9 355.342 1548.04 344.663L1568.11 363.191C1561.68 371.04 1553.7 377.023 1544.18 381.14C1534.66 385.257 1524.04 387.316 1512.33 387.316ZM1675.56 356.05L1612.83 356.05L1600.87 385L1568.83 385L1629.04 249.9L1659.92 249.9L1720.33 385L1687.52 385L1675.56 356.05ZM1665.71 332.311L1644.29 280.587L1622.87 332.311L1665.71 332.311ZM1734.35 249.9L1795.72 249.9C1810.39 249.9 1823.32 252.731 1834.52 258.392C1845.84 263.925 1854.59 271.773 1860.77 281.938C1867.07 292.103 1870.22 303.94 1870.22 317.45C1870.22 330.96 1867.07 342.797 1860.77 352.962C1854.59 363.127 1845.84 371.04 1834.52 376.701C1823.32 382.234 1810.39 385 1795.72 385L1734.35 385L1734.35 249.9ZM1794.18 359.331C1807.69 359.331 1818.43 355.6 1826.41 348.137C1834.52 340.546 1838.57 330.317 1838.57 317.45C1838.57 304.583 1834.52 294.419 1826.41 286.956C1818.43 279.365 1807.69 275.569 1794.18 275.569L1765.62 275.569L1765.62 359.331L1794.18 359.331ZM1998.41 359.91L1998.41 385L1893.8 385L1893.8 249.9L1995.9 249.9L1995.9 274.99L1924.87 274.99L1924.87 304.326L1987.6 304.326L1987.6 328.644L1924.87 328.644L1924.87 359.91L1998.41 359.91ZM2146.23 385L2146.03 303.94L2106.27 370.718L2092.19 370.718L2052.62 305.677L2052.62 385L2023.28 385L2023.28 249.9L2049.15 249.9L2099.71 333.855L2149.51 249.9L2175.18 249.9L2175.56 385L2146.23 385ZM2272.46 337.136L2272.46 385L2241.2 385L2241.2 336.75L2188.89 249.9L2222.09 249.9L2258.18 309.923L2294.27 249.9L2324.96 249.9L2272.46 337.136Z" fill="black"/>
<path d="M79.8136 56.6C75.3136 59.75 74.4136 102.05 75.3136 252.8L76.6636 445.4L186.464 505.7C246.764 539 297.164 566 298.964 566C300.314 566 351.164 539 411.914 505.7L522.164 445.85L523.514 252.8C524.414 102.05 523.514 59.75 519.014 56.6C515.864 54.8 416.864 53 299.414 53C181.964 53 82.9636 54.8 79.8136 56.6ZM501.914 252.8C501.914 385.55 500.564 426.5 496.514 430.1C493.364 432.35 447.464 458 395.264 486.8L299.414 539L204.014 486.8C151.364 458 105.464 432.35 102.764 430.1C98.2636 426.5 96.9136 385.55 96.9136 252.8V80H299.414H501.914V252.8Z" fill="black"/>
<path d="M191.121 142.869V154.629H308.071H425.021V208.723V262.817H436.266H447.511V196.963V131.11H319.316H191.121V142.869Z" fill="black"/>
<path d="M210.22 303.599V348.599L254.77 373.349C279.07 387.299 301.57 398.549 304.27 398.549C309.22 398.549 380.77 359.849 387.07 353.549C389.32 351.749 388.87 345.449 385.72 340.499C380.77 330.599 380.32 330.599 342.52 351.299L304.27 371.999L271.87 354.449L239.47 336.449L238.12 297.749L236.77 259.049H223.72H210.22V303.599Z" fill="black"/>
<g filter="url(#filter0_d_229_2)">
<line x1="156.535" y1="163.194" x2="158.291" y2="385.048" stroke="black" stroke-width="28"/>
</g>
<g filter="url(#filter1_d_229_2)">
<line x1="149.712" y1="373.138" x2="306.59" y2="466.797" stroke="black" stroke-width="28"/>
</g>
<g filter="url(#filter2_d_229_2)">
<line x1="292.838" y1="466.331" x2="444.448" y2="385.677" stroke="black" stroke-width="28"/>
</g>
<g filter="url(#filter3_d_229_2)">
<line x1="435.072" y1="398.011" x2="437.025" y2="284.235" stroke="black" stroke-width="28"/>
</g>
<g filter="url(#filter4_d_229_2)">
<line x1="215.341" y1="268.278" x2="290.484" y2="200.95" stroke="black" stroke-width="23"/>
</g>
<g filter="url(#filter5_d_229_2)">
<path d="M279.41 202.999L376.469 247.435" stroke="black" stroke-width="27"/>
</g>
<defs>
<filter id="filter0_d_229_2" x="138.535" y="163.083" width="37.7549" height="230.075" filterUnits="userSpaceOnUse" color-interpolation-filters="sRGB">
<feFlood flood-opacity="0" result="BackgroundImageFix"/>
<feColorMatrix in="SourceAlpha" type="matrix" values="0 0 0 0 0 0 0 0 0 0 0 0 0 0 0 0 0 0 127 0" result="hardAlpha"/>
<feOffset dy="4"/>
<feGaussianBlur stdDeviation="2"/>
<feComposite in2="hardAlpha" operator="out"/>
<feColorMatrix type="matrix" values="0 0 0 0 0 0 0 0 0 0 0 0 0 0 0 0 0 0 0.25 0"/>
<feBlend mode="normal" in2="BackgroundImageFix" result="effect1_dropShadow_229_2"/>
<feBlend mode="normal" in="SourceGraphic" in2="effect1_dropShadow_229_2" result="shape"/>
</filter>
<filter id="filter1_d_229_2" x="138.535" y="361.117" width="179.231" height="125.7" filterUnits="userSpaceOnUse" color-interpolation-filters="sRGB">
<feFlood flood-opacity="0" result="BackgroundImageFix"/>
<feColorMatrix in="SourceAlpha" type="matrix" values="0 0 0 0 0 0 0 0 0 0 0 0 0 0 0 0 0 0 127 0" result="hardAlpha"/>
<feOffset dy="4"/>
<feGaussianBlur stdDeviation="2"/>
<feComposite in2="hardAlpha" operator="out"/>
<feColorMatrix type="matrix" values="0 0 0 0 0 0 0 0 0 0 0 0 0 0 0 0 0 0 0.25 0"/>
<feBlend mode="normal" in2="BackgroundImageFix" result="effect1_dropShadow_229_2"/>
<feBlend mode="normal" in="SourceGraphic" in2="effect1_dropShadow_229_2" result="shape"/>
</filter>
<filter id="filter2_d_229_2" x="282.263" y="373.317" width="172.76" height="113.374" filterUnits="userSpaceOnUse" color-interpolation-filters="sRGB">
<feFlood flood-opacity="0" result="BackgroundImageFix"/>
<feColorMatrix in="SourceAlpha" type="matrix" values="0 0 0 0 0 0 0 0 0 0 0 0 0 0 0 0 0 0 127 0" result="hardAlpha"/>
<feOffset dy="4"/>
<feGaussianBlur stdDeviation="2"/>
<feComposite in2="hardAlpha" operator="out"/>
<feColorMatrix type="matrix" values="0 0 0 0 0 0 0 0 0 0 0 0 0 0 0 0 0 0 0.25 0"/>
<feBlend mode="normal" in2="BackgroundImageFix" result="effect1_dropShadow_229_2"/>
<feBlend mode="normal" in="SourceGraphic" in2="effect1_dropShadow_229_2" result="shape"/>
</filter>
<filter id="filter3_d_229_2" x="417.074" y="283.995" width="37.9492" height="122.256" filterUnits="userSpaceOnUse" color-interpolation-filters="sRGB">
<feFlood flood-opacity="0" result="BackgroundImageFix"/>
<feColorMatrix in="SourceAlpha" type="matrix" values="0 0 0 0 0 0 0 0 0 0 0 0 0 0 0 0 0 0 127 0" result="hardAlpha"/>
<feOffset dy="4"/>
<feGaussianBlur stdDeviation="2"/>
<feComposite in2="hardAlpha" operator="out"/>
<feColorMatrix type="matrix" values="0 0 0 0 0 0 0 0 0 0 0 0 0 0 0 0 0 0 0.25 0"/>
<feBlend mode="normal" in2="BackgroundImageFix" result="effect1_dropShadow_229_2"/>
<feBlend mode="normal" in="SourceGraphic" in2="effect1_dropShadow_229_2" result="shape"/>
</filter>
<filter id="filter4_d_229_2" x="203.666" y="192.385" width="98.4922" height="92.458" filterUnits="userSpaceOnUse" color-interpolation-filters="sRGB">
<feFlood flood-opacity="0" result="BackgroundImageFix"/>
<feColorMatrix in="SourceAlpha" type="matrix" values="0 0 0 0 0 0 0 0 0 0 0 0 0 0 0 0 0 0 127 0" result="hardAlpha"/>
<feOffset dy="4"/>
<feGaussianBlur stdDeviation="2"/>
<feComposite in2="hardAlpha" operator="out"/>
<feColorMatrix type="matrix" values="0 0 0 0 0 0 0 0 0 0 0 0 0 0 0 0 0 0 0.25 0"/>
<feBlend mode="normal" in2="BackgroundImageFix" result="effect1_dropShadow_229_2"/>
<feBlend mode="normal" in="SourceGraphic" in2="effect1_dropShadow_229_2" result="shape"/>
</filter>
<filter id="filter5_d_229_2" x="269.79" y="190.724" width="116.299" height="76.9863" filterUnits="userSpaceOnUse" color-interpolation-filters="sRGB">
<feFlood flood-opacity="0" result="BackgroundImageFix"/>
<feColorMatrix in="SourceAlpha" type="matrix" values="0 0 0 0 0 0 0 0 0 0 0 0 0 0 0 0 0 0 127 0" result="hardAlpha"/>
<feOffset dy="4"/>
<feGaussianBlur stdDeviation="2"/>
<feComposite in2="hardAlpha" operator="out"/>
<feColorMatrix type="matrix" values="0 0 0 0 0 0 0 0 0 0 0 0 0 0 0 0 0 0 0.25 0"/>
<feBlend mode="normal" in2="BackgroundImageFix" result="effect1_dropShadow_229_2"/>
<feBlend mode="normal" in="SourceGraphic" in2="effect1_dropShadow_229_2" result="shape"/>
</filter>
</defs>
</svg>
